<svg width="144" height="48" viewBox="0 0 144 48" fill="none" xmlns="http://www.w3.org/2000/svg">
<g clip-path="url(#clip0_1554_4133)">
<g clip-path="url(#clip1_1554_4133)">
<path d="M132.396 0H11.469C11.0282 0 10.5927 0 10.1528 0C9.78495 0 9.41983 0.00881565 9.0484 0.0149866C8.24114 0.0248968 7.43583 0.095038 6.63949 0.224799C5.84453 0.357093 5.07442 0.605534 4.35501 0.961788C3.63663 1.32222 2.97997 1.78975 2.4086 2.34761C1.83519 2.90435 1.35699 3.54756 0.99229 4.25267C0.62721 4.95685 0.373979 5.71131 0.24131 6.49009C0.107848 7.26811 0.0358132 8.05502 0.0258432 8.84386C0.0150248 9.20353 0.0141232 9.56586 0.0078125 9.92559V37.0953C0.0141232 37.4604 0.0150248 37.8139 0.0258432 38.1788C0.0357739 38.9673 0.107809 39.754 0.24131 40.5317C0.373657 41.3109 0.626903 42.0657 0.99229 42.77C1.35656 43.4733 1.83485 44.1142 2.4086 44.668C2.97723 45.2287 3.63443 45.6963 4.35501 46.053C5.07418 46.4109 5.84427 46.6611 6.63949 46.7952C7.43602 46.9233 8.24126 46.9925 9.0484 47.0024C9.41983 47.0103 9.78495 47.0156 10.1528 47.0156H11.469H132.396H133.7C134.066 47.0156 134.442 47.0103 134.807 47.0024C135.614 46.9925 136.417 46.9233 137.212 46.7952C138.01 46.6602 138.783 46.41 139.506 46.053C140.225 45.6961 140.881 45.2284 141.449 44.668C142.022 44.1123 142.501 43.4717 142.871 42.77C143.233 42.0653 143.484 41.3105 143.614 40.5317C143.748 39.754 143.823 38.9674 143.837 38.1788C143.842 37.8139 143.842 37.4604 143.842 37.0953C143.851 36.6678 143.851 36.2438 143.851 35.8092V11.2135C143.851 10.7833 143.851 10.3567 143.842 9.92999C143.842 9.57027 143.842 9.20794 143.837 8.84827C143.823 8.05933 143.748 7.27254 143.614 6.49449C143.484 5.71618 143.232 4.96178 142.871 4.25708C142.128 2.8435 140.951 1.69271 139.506 0.966196C138.783 0.609384 138.01 0.359526 137.212 0.224799C136.418 0.0954995 135.614 0.0262389 134.807 0.0176313C134.442 0.0114604 134.066 0.00440782 133.7 0C133.267 0 132.828 0 132.396 0Z" fill="#808080"/>
<path d="M10.1595 45.9898C9.79348 45.9898 9.43828 45.9845 9.07226 45.9766C8.31958 45.9671 7.56865 45.9031 6.82564 45.7853C6.13279 45.6683 5.46161 45.4511 4.83415 45.1409C4.21228 44.8335 3.64515 44.4302 3.15459 43.9463C2.65716 43.4681 2.243 42.9137 1.9285 42.3049C1.61033 41.6919 1.39021 41.0349 1.27579 40.3566C1.15145 39.628 1.08454 38.8913 1.07565 38.1527C1.06754 37.905 1.05762 37.0798 1.05762 37.0798V9.92767C1.05762 9.92767 1.06844 9.1157 1.07565 8.8768C1.08465 8.13831 1.15095 7.40156 1.27399 6.67288C1.3891 5.99273 1.6095 5.33369 1.9276 4.71845C2.2414 4.11105 2.65328 3.55708 3.14737 3.07786C3.64176 2.59352 4.21059 2.1878 4.83325 1.87541C5.45931 1.56562 6.12942 1.34959 6.82113 1.23451C7.56648 1.11563 8.31983 1.0511 9.07497 1.04145L10.1568 1.02734H133.694L134.792 1.04233C135.54 1.0509 136.287 1.11485 137.025 1.23362C137.724 1.34905 138.401 1.56597 139.034 1.87717C140.281 2.50563 141.297 3.50046 141.936 4.72198C142.25 5.33294 142.467 5.98685 142.58 6.66142C142.705 7.39512 142.775 8.13671 142.79 8.88032V9.9259C142.798 10.3667 142.798 10.7863 142.798 11.2094V35.8051C142.798 36.2326 142.798 36.6496 142.79 37.0692C142.79 37.4519 142.79 37.8019 142.784 38.1624C142.771 38.8924 142.702 39.6205 142.58 40.3407C142.466 41.0237 142.248 41.6857 141.931 42.304C141.613 42.9062 141.201 43.4557 140.709 43.9322C140.218 44.419 139.65 44.8251 139.026 45.1347C138.396 45.4472 137.72 45.665 137.021 45.7809C136.279 45.8992 135.528 45.9632 134.775 45.9722C134.424 45.9801 134.054 45.9854 133.693 45.9854H132.389L10.1595 45.9898Z" fill="black"/>
<path d="M29.7813 23.8619C29.7943 22.8809 30.061 21.919 30.5562 21.0658C31.0514 20.2126 31.7593 19.4956 32.6139 18.9816C32.0707 18.2234 31.3543 17.5994 30.5214 17.1592C29.6886 16.7189 28.7622 16.4745 27.816 16.4453C25.7974 16.2382 23.8402 17.631 22.816 17.631C21.7667 17.631 20.1836 16.47 18.4779 16.5044C17.3748 16.5395 16.2997 16.8533 15.3574 17.4153C14.4151 17.9774 13.6378 18.7685 13.1011 19.7115C10.776 23.6469 12.5106 29.4316 14.7374 32.6123C15.8517 34.1709 17.1535 35.9111 18.8574 35.8494C20.5253 35.7815 21.1473 34.8091 23.1604 34.8091C25.1547 34.8091 25.7388 35.8494 27.477 35.8097C29.2665 35.7815 30.3935 34.245 31.4681 32.6723C32.2687 31.5624 32.8849 30.3357 33.2937 29.0376C32.2528 28.608 31.3645 27.8879 30.7398 26.9673C30.1151 26.0468 29.7817 24.9667 29.7813 23.8619Z" fill="white"/>
<path d="M26.4976 14.3533C27.4735 13.2082 27.9541 11.7359 27.8373 10.2498C26.3472 10.4029 24.9708 11.0995 23.9823 12.2006C23.4989 12.7385 23.1287 13.3643 22.8927 14.0423C22.6569 14.7203 22.5599 15.437 22.6075 16.1517C23.3528 16.1591 24.09 16.0011 24.7639 15.6897C25.4377 15.3782 26.0305 14.9212 26.4976 14.3533Z" fill="white"/>
<path d="M50.8538 31.9006H45.167L43.8012 35.8456H41.3877L46.7771 21.2495H49.2806L54.6701 35.8456H52.2223L50.8538 31.9006ZM45.753 30.0802H50.2606L48.0375 23.6774H47.9753L45.753 30.0802Z" fill="white"/>
<path d="M66.3129 30.526C66.3129 33.8328 64.5027 35.9583 61.771 35.9583C61.0787 35.9938 60.3902 35.8378 59.7843 35.5084C59.1784 35.1789 58.6796 34.6893 58.3451 34.0955H58.2938V39.3673H56.0615V25.2041H58.2252V26.976H58.2668C58.6164 26.3853 59.1234 25.8984 59.7336 25.5672C60.3439 25.2358 61.0346 25.0726 61.7322 25.0948C64.4927 25.093 66.3129 27.2282 66.3129 30.526ZM64.0168 30.526C64.0168 28.3716 62.8781 26.9548 61.1408 26.9548C59.4342 26.9548 58.2857 28.4015 58.2857 30.526C58.2857 32.6701 59.4342 34.1061 61.1408 34.1061C62.8781 34.1061 64.0168 32.7 64.0168 30.526Z" fill="white"/>
<path d="M78.2914 30.526C78.2914 33.8328 76.4811 35.9583 73.7495 35.9583C73.0578 35.9931 72.3701 35.8367 71.7649 35.5073C71.1597 35.1779 70.6615 34.6887 70.3272 34.0955H70.2732V39.3672H68.04V25.2041H70.2037V26.976H70.2453C70.5948 26.3854 71.1016 25.8986 71.7118 25.5673C72.3218 25.2361 73.0123 25.0727 73.7098 25.0947C76.4703 25.093 78.2914 27.2281 78.2914 30.526ZM75.9952 30.526C75.9952 28.3715 74.8566 26.9548 73.1193 26.9548C71.4127 26.9548 70.2642 28.4015 70.2642 30.526C70.2642 32.67 71.4127 34.1061 73.1193 34.1061C74.8566 34.1061 75.9952 32.7 75.9952 30.526Z" fill="white"/>
<path d="M86.2072 31.7807C86.3731 33.2282 87.8111 34.1786 89.7764 34.1786C91.6588 34.1786 93.0137 33.2282 93.0137 31.9226C93.0137 30.7899 92.197 30.1119 90.2623 29.6465L88.3276 29.1907C85.586 28.5436 84.314 27.29 84.314 25.2563C84.314 22.7376 86.5588 21.0081 89.7457 21.0081C92.9011 21.0081 95.0648 22.7376 95.1351 25.2563H92.8812C92.7451 23.8034 91.5128 22.9219 89.7141 22.9219C87.9156 22.9219 86.6832 23.8114 86.6832 25.1064C86.6832 26.1379 87.4693 26.7452 89.3932 27.2098L91.0376 27.6047C94.1028 28.31 95.3731 29.516 95.3731 31.6511C95.3731 34.384 93.1481 36.0924 89.6105 36.0924C86.3001 36.0924 84.0652 34.4228 83.9209 31.7825L86.2072 31.7807Z" fill="white"/>
<path d="M100.195 22.686V25.2038H102.268V26.9343H100.195V32.8011C100.195 33.7127 100.609 34.1367 101.518 34.1367C101.764 34.1327 102.01 34.1159 102.254 34.0864V35.8063C101.845 35.8808 101.429 35.9144 101.013 35.9068C98.8089 35.9068 97.9475 35.0976 97.9475 33.0338V26.9343H96.3652V25.2038H97.9475V22.686H100.195Z" fill="white"/>
<path d="M103.463 30.5258C103.463 27.1758 105.48 25.0732 108.624 25.0732C111.768 25.0732 113.787 27.1776 113.787 30.5258C113.787 33.874 111.79 35.9783 108.624 35.9783C105.457 35.9783 103.463 33.8837 103.463 30.5258ZM111.51 30.5258C111.51 28.2284 110.434 26.8735 108.626 26.8735C106.817 26.8735 105.74 28.239 105.74 30.5258C105.74 32.832 106.816 34.1772 108.626 34.1772C110.436 34.1772 111.51 32.832 111.51 30.5258Z" fill="white"/>
<path d="M115.629 25.2041H117.759V27.0158H117.811C117.955 26.4507 118.294 25.9512 118.77 25.6012C119.246 25.2511 119.83 25.0717 120.425 25.093C120.683 25.0921 120.94 25.1196 121.191 25.175V27.2176C120.866 27.1209 120.527 27.0765 120.187 27.0863C119.591 27.0624 119.008 27.2712 118.569 27.6667C118.13 28.0623 117.869 28.6123 117.844 29.1959C117.839 29.3088 117.843 29.4221 117.856 29.5344V35.8465H115.629V25.2041Z" fill="white"/>
<path d="M131.494 32.7207C131.194 34.6521 129.269 35.9825 126.806 35.9825C123.64 35.9825 121.675 33.9081 121.675 30.5802C121.675 27.2523 123.65 25.0774 126.711 25.0774C129.722 25.0774 131.617 27.0997 131.617 30.3263V31.0747H123.933V31.207C123.899 31.5696 123.939 31.9349 124.051 32.2822C124.163 32.6296 124.343 32.952 124.582 33.2311C124.821 33.5102 125.114 33.7405 125.444 33.9089C125.774 34.0773 126.134 34.1803 126.505 34.2122C126.623 34.2225 126.741 34.2257 126.859 34.2219C127.387 34.2699 127.917 34.15 128.371 33.88C128.823 33.61 129.175 33.2043 129.373 32.7233L131.494 32.7207ZM123.942 29.547H129.382C129.402 29.2113 129.354 28.8753 129.24 28.5579C129.127 28.2406 128.95 27.9483 128.721 27.6977C128.492 27.4472 128.215 27.2432 127.904 27.0977C127.595 26.9521 127.259 26.8677 126.915 26.8494C126.848 26.8494 126.781 26.8441 126.713 26.8494C126.352 26.8473 125.992 26.9149 125.657 27.0483C125.322 27.1818 125.018 27.3785 124.76 27.6272C124.503 27.8759 124.298 28.1717 124.158 28.4978C124.018 28.8239 123.944 29.1738 123.942 29.5276V29.547Z" fill="white"/>
<path d="M45.4767 10.2636C45.9455 10.2306 46.4158 10.2999 46.8539 10.4664C47.2919 10.6329 47.6866 10.8925 48.0096 11.2263C48.3325 11.5602 48.5754 11.96 48.7211 12.397C48.8666 12.8339 48.9111 13.297 48.8512 13.7529C48.8512 15.9938 47.6125 17.2791 45.4767 17.2791H42.8857V10.2636H45.4767ZM44.0018 16.2847H45.3542C45.6888 16.3044 46.0236 16.2508 46.3344 16.1278C46.6452 16.0049 46.924 15.8158 47.1505 15.5741C47.3771 15.3325 47.5457 15.0445 47.644 14.7311C47.7423 14.4178 47.7679 14.0868 47.7188 13.7626C47.7593 13.4749 47.7414 13.1822 47.6661 12.9013C47.5907 12.6204 47.4597 12.3567 47.2801 12.1253C47.1007 11.894 46.8763 11.6996 46.62 11.5529C46.3635 11.4064 46.0802 11.3107 45.7859 11.2712C45.6429 11.2524 45.4982 11.2468 45.3542 11.2545H44.0018V16.2847Z" fill="white"/>
<path d="M50.1098 14.6277C50.0451 13.9656 50.2518 13.3055 50.6848 12.7926C51.1176 12.2797 51.7412 11.9559 52.4182 11.8925C53.0952 11.8291 53.7703 12.0314 54.2948 12.4547C54.8193 12.8781 55.1504 13.4878 55.2152 14.1498C55.2305 14.3087 55.2305 14.4687 55.2152 14.6277C55.2501 14.9759 55.2099 15.3274 55.0975 15.6596C54.985 15.9919 54.8028 16.2974 54.5624 16.5567C54.3219 16.8158 54.0287 17.023 53.7015 17.1647C53.3743 17.3065 53.0204 17.3797 52.6626 17.3797C52.3047 17.3797 51.9508 17.3065 51.6235 17.1647C51.2964 17.023 51.0031 16.8158 50.7627 16.5567C50.5223 16.2974 50.34 15.9919 50.2275 15.6596C50.1151 15.3274 50.075 14.9759 50.1098 14.6277ZM54.1162 14.6277C54.1162 13.4815 53.5889 12.8089 52.6638 12.8089C51.7389 12.8089 51.2133 13.4798 51.2133 14.6277C51.2133 15.7754 51.7353 16.4498 52.6638 16.4498C53.5925 16.4498 54.1162 15.7798 54.1162 14.6277Z" fill="white"/>
<path d="M62.0014 17.2792H60.8934L59.7791 13.3792H59.6889L58.5764 17.2792H57.4784L55.9863 11.9897H57.0682L58.0382 16.0291H58.1175L59.2309 11.9897H60.2569L61.3703 16.0291H61.4541L62.4196 11.9897H63.488L62.0014 17.2792Z" fill="white"/>
<path d="M64.7432 11.982H65.7709V12.823H65.8512C65.987 12.5212 66.2155 12.2684 66.5051 12.0996C66.7946 11.9307 67.1307 11.8541 67.4667 11.8806C67.73 11.8616 67.9942 11.9007 68.24 11.995C68.4857 12.0893 68.7066 12.2363 68.8864 12.4253C69.0663 12.6143 69.2004 12.8403 69.2789 13.0868C69.3575 13.3332 69.3783 13.5938 69.3401 13.8491V17.2775H68.2718V14.1109C68.2718 13.2602 67.8931 12.838 67.0998 12.838C66.9369 12.8305 66.7742 12.8544 66.6209 12.9085C66.4675 12.9626 66.3264 13.0456 66.2059 13.1529C66.0854 13.2602 65.9876 13.3897 65.9183 13.534C65.8488 13.6782 65.8092 13.8344 65.8016 13.9937C65.7988 14.0555 65.8008 14.1174 65.8079 14.1788V17.2775H64.7432V11.982Z" fill="white"/>
<path d="M71.042 9.91699H72.1103V17.2782H71.042V9.91699Z" fill="white"/>
<path d="M73.5952 14.6276C73.5631 14.2998 73.5975 13.969 73.6961 13.6542C73.7949 13.3394 73.956 13.0466 74.1704 12.7926C74.3848 12.5388 74.6483 12.3286 74.9457 12.1742C75.2432 12.0198 75.5688 11.9243 75.904 11.893C76.581 11.8297 77.256 12.0321 77.7804 12.4554C78.3049 12.8788 78.6359 13.4887 78.7006 14.1506C78.7159 14.3093 78.7159 14.4689 78.7006 14.6276C78.7354 14.9758 78.6953 15.3275 78.5828 15.6596C78.4704 15.9919 78.2881 16.2974 78.0477 16.5566C77.8073 16.8158 77.514 17.023 77.1869 17.1647C76.8597 17.3064 76.5057 17.3797 76.1479 17.3797C75.79 17.3797 75.4361 17.3064 75.109 17.1647C74.7817 17.023 74.4884 16.8158 74.2481 16.5566C74.0076 16.2974 73.8253 15.9919 73.7129 15.6596C73.6004 15.3275 73.5604 14.9758 73.5952 14.6276ZM77.6016 14.6276C77.6016 13.4815 77.0742 12.8089 76.1493 12.8089C75.2242 12.8089 74.6987 13.4797 74.6987 14.6276C74.6987 15.7754 75.2206 16.4498 76.1493 16.4498C77.0778 16.4498 77.6016 15.7798 77.6016 14.6276Z" fill="white"/>
<path d="M79.8262 15.7808C79.8262 14.8279 80.5474 14.2822 81.8393 14.2002L83.3052 14.1174V13.6651C83.3052 13.1062 82.9274 12.7906 82.1972 12.7906C81.6004 12.7906 81.1875 13.0049 81.0693 13.3786H80.0344C80.1444 12.4698 81.0189 11.887 82.2468 11.887C83.5991 11.887 84.369 12.5473 84.369 13.6651V17.2796H83.3404V16.5364H83.2556C83.0844 16.8027 82.844 17.02 82.5589 17.1658C82.2738 17.3117 81.9543 17.381 81.6328 17.3668C81.2015 17.4107 80.77 17.2853 80.4333 17.0181C80.0965 16.751 79.882 16.3639 79.8369 15.9422C79.8298 15.8875 79.8262 15.8337 79.8262 15.7808ZM83.3052 15.3286V14.8878L81.9835 14.9698C81.238 15.0192 80.9017 15.2669 80.9017 15.7332C80.9017 16.1997 81.3245 16.487 81.9051 16.487C82.2419 16.5203 82.5783 16.4213 82.8406 16.2121C83.1028 16.0028 83.2693 15.7002 83.3034 15.3709L83.3052 15.3286Z" fill="white"/>
<path d="M85.7725 14.6278C85.7725 12.9528 86.6515 11.8949 88.0191 11.8949C88.3573 11.8796 88.693 11.9588 88.987 12.1232C89.2809 12.2876 89.5209 12.5304 89.6789 12.8233H89.7591V9.91406H90.8274V17.2787H89.8005V16.443H89.7194C89.5492 16.734 89.3008 16.9739 89.0011 17.1368C88.7013 17.2996 88.3617 17.3793 88.0191 17.3668C86.6452 17.3668 85.7725 16.309 85.7725 14.6278ZM86.876 14.6278C86.876 15.7501 87.4169 16.4262 88.3185 16.4262C89.22 16.4262 89.7753 15.7404 89.7753 14.6322C89.7753 13.5241 89.2136 12.8338 88.3185 12.8338C87.4232 12.8338 86.876 13.5144 86.876 14.6278Z" fill="white"/>
<path d="M95.246 14.6277C95.1813 13.9656 95.3881 13.3055 95.821 12.7926C96.2538 12.2797 96.8774 11.9559 97.5544 11.8925C98.2314 11.8291 98.9063 12.0314 99.4313 12.4547C99.9553 12.8781 100.286 13.4878 100.351 14.1499C100.367 14.3087 100.367 14.4687 100.351 14.6277C100.387 14.9572 100.356 15.2904 100.26 15.608C100.163 15.9257 100.003 16.2215 99.7898 16.4784C99.5753 16.7353 99.3118 16.9482 99.0131 17.1048C98.7143 17.2613 98.3872 17.3585 98.0492 17.3905C97.7122 17.4226 97.3717 17.389 97.0478 17.2917C96.7239 17.1944 96.4229 17.0352 96.1623 16.8236C95.9015 16.6118 95.6864 16.3517 95.5291 16.0581C95.3719 15.7645 95.2756 15.4435 95.246 15.1134C95.2308 14.9518 95.2308 14.7892 95.246 14.6277ZM99.2521 14.6277C99.2521 13.4815 98.7261 12.8089 97.8009 12.8089C96.876 12.8089 96.3495 13.4798 96.3495 14.6277C96.3495 15.7754 96.8724 16.4498 97.8009 16.4498C98.73 16.4498 99.2521 15.7798 99.2521 14.6277Z" fill="white"/>
<path d="M101.785 11.982H102.814V12.823H102.893C103.029 12.5212 103.257 12.2684 103.547 12.0996C103.836 11.9307 104.172 11.8541 104.508 11.8806C104.974 11.8464 105.435 11.9943 105.788 12.2918C106.143 12.5894 106.361 13.0122 106.397 13.4674C106.405 13.5947 106.401 13.7228 106.382 13.8491V17.2775H105.313V14.1109C105.313 13.2602 104.936 12.838 104.142 12.838C103.979 12.8304 103.816 12.8543 103.663 12.9082C103.509 12.9623 103.368 13.0453 103.248 13.1526C103.127 13.26 103.029 13.3895 102.96 13.5338C102.891 13.6782 102.851 13.8344 102.843 13.9937C102.84 14.0554 102.842 14.1173 102.849 14.1788V17.2775H101.78L101.785 11.982Z" fill="white"/>
<path d="M112.418 10.6667V12.0086H113.59V12.8901H112.418V15.6115C112.418 16.166 112.652 16.4049 113.184 16.4049C113.32 16.4049 113.456 16.397 113.591 16.3811V17.2512C113.399 17.2845 113.205 17.3025 113.01 17.305C111.822 17.305 111.349 16.8959 111.349 15.876V12.8875H110.489V12.0059H111.349V10.6667H112.418Z" fill="white"/>
<path d="M115.051 9.91699H116.109V12.8332H116.194C116.336 12.5285 116.57 12.274 116.866 12.1045C117.162 11.9348 117.502 11.8584 117.844 11.8856C118.078 11.873 118.313 11.9058 118.533 11.9817C118.754 12.0577 118.957 12.1754 119.131 12.3283C119.306 12.4811 119.448 12.666 119.549 12.8725C119.65 13.0789 119.708 13.3029 119.721 13.5314C119.728 13.6406 119.723 13.7502 119.707 13.8586V17.2782H118.639V14.116C118.639 13.2705 118.236 12.8429 117.482 12.8429C117.316 12.8293 117.15 12.8478 116.991 12.8973C116.833 12.9469 116.687 13.0264 116.559 13.1315C116.433 13.2366 116.329 13.3651 116.253 13.5097C116.177 13.6542 116.131 13.812 116.117 13.974C116.112 14.0441 116.112 14.1146 116.117 14.1847V17.2782H115.05L115.051 9.91699Z" fill="white"/>
<path d="M125.937 15.847C125.792 16.3307 125.478 16.749 125.049 17.029C124.621 17.3089 124.105 17.4326 123.593 17.3784C123.27 17.387 122.949 17.3334 122.647 17.2205C122.345 17.1075 122.069 16.9376 121.835 16.7202C121.6 16.503 121.412 16.2425 121.281 15.954C121.148 15.6655 121.077 15.3544 121.068 15.0386C121.065 14.9075 121.072 14.7763 121.09 14.6464C121.002 14.0047 121.179 13.3553 121.58 12.8409C121.983 12.3264 122.576 11.9891 123.233 11.9029C123.35 11.8875 123.468 11.8805 123.586 11.8817C125.092 11.8817 126.001 12.8877 126.001 14.5494V14.9143H122.178V14.9725C122.146 15.3424 122.266 15.7094 122.511 15.993C122.757 16.2764 123.106 16.4532 123.484 16.4845C123.53 16.4845 123.575 16.4898 123.62 16.4845C123.875 16.5144 124.134 16.4694 124.364 16.3552C124.593 16.2409 124.782 16.0625 124.908 15.8426L125.937 15.847ZM122.179 14.1412H124.914C124.939 13.8035 124.826 13.4698 124.6 13.2135C124.374 12.957 124.053 12.7989 123.707 12.774C123.666 12.7717 123.623 12.7717 123.581 12.774C123.215 12.7695 122.861 12.907 122.599 13.1564C122.336 13.4059 122.186 13.747 122.179 14.1051V14.1395V14.1412Z" fill="white"/>
</g>
</g>
<defs>
<clipPath id="clip0_1554_4133">
<rect width="144" height="47.0156" fill="white"/>
</clipPath>
<clipPath id="clip1_1554_4133">
<rect width="143.985" height="47.0156" fill="white" transform="translate(0.0078125)"/>
</clipPath>
</defs>
</svg>
