<svg width="197" height="65" viewBox="0 0 197 65" fill="none" xmlns="http://www.w3.org/2000/svg">
<g clip-path="url(#clip0_1547_4041)">
<g clip-path="url(#clip1_1547_4041)">
<path d="M181.082 0H15.6857C15.0827 0 14.4871 0 13.8854 0C13.3823 0 12.8829 0.0120575 12.3749 0.0204977C11.2708 0.0340522 10.1693 0.129987 9.08014 0.307466C7.99284 0.488409 6.93954 0.828209 5.95558 1.31547C4.97302 1.80844 4.07489 2.4479 3.2934 3.2109C2.50914 3.97238 1.85509 4.85212 1.35627 5.81652C0.856937 6.77965 0.510584 7.81156 0.329128 8.87671C0.146588 9.94084 0.0480632 11.0171 0.0344268 12.0961C0.0196301 12.588 0.018397 13.0836 0.00976562 13.5756V50.7366C0.018397 51.2359 0.0196301 51.7193 0.0344268 52.2185C0.0480093 53.297 0.146534 54.3729 0.329128 55.4366C0.510143 56.5023 0.856516 57.5346 1.35627 58.498C1.8545 59.4599 2.50867 60.3365 3.2934 61.0939C4.07114 61.8609 4.97002 62.5005 5.95558 62.9882C6.93921 63.4778 7.99249 63.82 9.08014 64.0035C10.1696 64.1785 11.2709 64.2733 12.3749 64.2868C12.8829 64.2976 13.3823 64.3049 13.8854 64.3049H15.6857H181.082H182.865C183.366 64.3049 183.88 64.2976 184.38 64.2868C185.482 64.2733 186.581 64.1785 187.669 64.0035C188.761 63.8187 189.818 63.4766 190.806 62.9882C191.79 62.5001 192.687 61.8605 193.464 61.0939C194.248 60.3339 194.903 59.4578 195.408 58.498C195.904 57.5341 196.247 56.5017 196.425 55.4366C196.609 54.3729 196.71 53.2971 196.73 52.2185C196.737 51.7193 196.737 51.2359 196.737 50.7366C196.749 50.1518 196.749 49.5718 196.749 48.9774V15.3371C196.749 14.7487 196.749 14.1652 196.737 13.5816C196.737 13.0896 196.737 12.594 196.73 12.1021C196.71 11.023 196.609 9.94691 196.425 8.88274C196.247 7.81821 195.903 6.7864 195.408 5.82255C194.393 3.88915 192.782 2.31518 190.806 1.3215C189.818 0.833476 188.761 0.491735 187.669 0.307466C186.582 0.130618 185.482 0.0358879 184.38 0.0241149C183.88 0.0156747 183.366 0.00602873 182.865 0C182.273 0 181.672 0 181.082 0Z" fill="#808080"/>
<path d="M13.8943 62.902C13.3937 62.902 12.9078 62.8948 12.4072 62.8839C11.3777 62.8709 10.3507 62.7834 9.33444 62.6223C8.3868 62.4622 7.4688 62.1652 6.6106 61.7409C5.76005 61.3205 4.98437 60.7688 4.31342 60.107C3.63306 59.453 3.0666 58.6947 2.63645 57.862C2.20128 57.0236 1.90022 56.1249 1.74371 55.1972C1.57365 54.2007 1.48214 53.193 1.46998 52.1829C1.45888 51.8441 1.44531 50.7154 1.44531 50.7154V13.5785C1.44531 13.5785 1.46012 12.468 1.46998 12.1412C1.48229 11.1312 1.57297 10.1235 1.74125 9.12687C1.89869 8.19661 2.20014 7.29521 2.63522 6.45373C3.06442 5.62296 3.62775 4.86528 4.30354 4.20984C4.97974 3.54739 5.75774 2.99247 6.60937 2.5652C7.46566 2.1415 8.38219 1.84602 9.32826 1.68862C10.3477 1.52602 11.3781 1.43776 12.4109 1.42456L13.8905 1.40527H182.857L184.358 1.42577C185.382 1.43749 186.403 1.52496 187.413 1.68741C188.368 1.84528 189.294 2.14197 190.161 2.56761C191.866 3.42718 193.255 4.78784 194.13 6.45855C194.559 7.29418 194.856 8.18855 195.01 9.1112C195.182 10.1147 195.277 11.129 195.297 12.1461V13.5761C195.309 14.179 195.309 14.7529 195.309 15.3317V48.972C195.309 49.5567 195.309 50.127 195.297 50.701C195.297 51.2244 195.297 51.703 195.289 52.1962C195.272 53.1946 195.178 54.1904 195.01 55.1755C194.855 56.1097 194.556 57.0152 194.122 57.8608C193.688 58.6844 193.124 59.436 192.452 60.0877C191.78 60.7535 191.003 61.309 190.15 61.7325C189.287 62.1598 188.363 62.4578 187.408 62.6162C186.392 62.7781 185.365 62.8656 184.336 62.8779C183.855 62.8887 183.348 62.896 182.855 62.896H181.072L13.8943 62.902Z" fill="black"/>
<path d="M40.7323 32.6366C40.7501 31.2947 41.1148 29.9792 41.7921 28.8122C42.4695 27.6452 43.4377 26.6645 44.6065 25.9616C43.8636 24.9245 42.8837 24.071 41.7446 23.469C40.6054 22.8668 39.3385 22.5325 38.0442 22.4926C35.2834 22.2093 32.6065 24.1143 31.2057 24.1143C29.7705 24.1143 27.6051 22.5264 25.2722 22.5734C23.7635 22.6214 22.293 23.0506 21.0042 23.8193C19.7155 24.588 18.6523 25.6701 17.9183 26.9599C14.7381 32.3424 17.1106 40.2544 20.1562 44.6048C21.6803 46.7365 23.4608 49.1166 25.7913 49.0322C28.0726 48.9393 28.9233 47.6094 31.6767 47.6094C34.4043 47.6094 35.2033 49.0322 37.5806 48.9779C40.0282 48.9393 41.5696 46.8378 43.0394 44.6868C44.1344 43.1688 44.9772 41.4909 45.5363 39.7155C44.1126 39.1279 42.8976 38.1429 42.0433 36.8839C41.1889 35.6249 40.7329 34.1476 40.7323 32.6366Z" fill="white"/>
<path d="M36.2401 19.6317C37.5749 18.0654 38.2322 16.0517 38.0724 14.019C36.0344 14.2286 34.1518 15.1812 32.7998 16.6873C32.1387 17.423 31.6323 18.279 31.3096 19.2063C30.987 20.1335 30.8543 21.1139 30.9194 22.0913C31.9388 22.1015 32.9472 21.8854 33.8689 21.4594C34.7905 21.0334 35.6012 20.4084 36.2401 19.6317Z" fill="white"/>
<path d="M69.5536 43.6313H61.7755L59.9074 49.0271H56.6064L63.9777 29.0635H67.4019L74.7732 49.0271H71.4254L69.5536 43.6313ZM62.577 41.1415H68.7423L65.7016 32.3842H65.6165L62.577 41.1415Z" fill="white"/>
<path d="M90.6979 41.7516C90.6979 46.2744 88.222 49.1815 84.4858 49.1815C83.5389 49.23 82.5972 49.0167 81.7685 48.5662C80.9398 48.1155 80.2576 47.4458 79.8001 46.6337H79.7299V53.8441H76.6768V34.4725H79.6361V36.896H79.6929C80.1712 36.0882 80.8646 35.4222 81.6992 34.9692C82.5339 34.5159 83.4786 34.2928 84.4327 34.323C88.2084 34.3206 90.6979 37.241 90.6979 41.7516ZM87.5574 41.7516C87.5574 38.8048 86 36.8671 83.6238 36.8671C81.2897 36.8671 79.7188 38.8458 79.7188 41.7516C79.7188 44.684 81.2897 46.6481 83.6238 46.6481C86 46.6481 87.5574 44.725 87.5574 41.7516Z" fill="white"/>
<path d="M107.081 41.7518C107.081 46.2746 104.605 49.1817 100.869 49.1817C99.9225 49.2293 98.9819 49.0154 98.1541 48.5649C97.3265 48.1144 96.645 47.4452 96.1879 46.6339H96.1139V53.8442H93.0596V34.4728H96.0189V36.8962H96.0757C96.5539 36.0886 97.247 35.4227 98.0815 34.9696C98.9159 34.5166 99.8603 34.2931 100.814 34.3232C104.59 34.3208 107.081 37.2411 107.081 41.7518ZM103.94 41.7518C103.94 38.805 102.383 36.8673 100.007 36.8673C97.6725 36.8673 96.1016 38.846 96.1016 41.7518C96.1016 44.6842 97.6725 46.6484 100.007 46.6484C102.383 46.6484 103.94 44.7252 103.94 41.7518Z" fill="white"/>
<path d="M117.908 43.4675C118.135 45.4473 120.102 46.7472 122.79 46.7472C125.365 46.7472 127.218 45.4473 127.218 43.6616C127.218 42.1123 126.101 41.1851 123.455 40.5485L120.808 39.9251C117.059 39.04 115.319 37.3255 115.319 34.5439C115.319 31.099 118.389 28.7334 122.748 28.7334C127.064 28.7334 130.023 31.099 130.119 34.5439H127.037C126.85 32.5567 125.165 31.351 122.705 31.351C120.245 31.351 118.559 32.5676 118.559 34.3389C118.559 35.7496 119.635 36.5803 122.266 37.2157L124.515 37.7559C128.707 38.7205 130.445 40.37 130.445 43.2903C130.445 47.0281 127.402 49.3648 122.563 49.3648C118.035 49.3648 114.979 47.0812 114.781 43.4699L117.908 43.4675Z" fill="white"/>
<path d="M137.039 31.0288V34.4725H139.875V36.8393H137.039V44.8635C137.039 46.1103 137.605 46.6903 138.849 46.6903C139.185 46.6848 139.521 46.6619 139.855 46.6215V48.9739C139.296 49.0757 138.727 49.1217 138.157 49.1113C135.143 49.1113 133.965 48.0045 133.965 45.1818V36.8393H131.801V34.4725H133.965V31.0288H137.039Z" fill="white"/>
<path d="M141.51 41.7511C141.51 37.1692 144.268 34.2935 148.569 34.2935C152.869 34.2935 155.63 37.1716 155.63 41.7511C155.63 46.3305 152.898 49.2087 148.569 49.2087C144.237 49.2087 141.51 46.3438 141.51 41.7511ZM152.517 41.7511C152.517 38.6089 151.044 36.7557 148.571 36.7557C146.097 36.7557 144.625 38.6233 144.625 41.7511C144.625 44.9054 146.096 46.7453 148.571 46.7453C151.047 46.7453 152.517 44.9054 152.517 41.7511Z" fill="white"/>
<path d="M158.148 34.4726H161.062V36.9505H161.133C161.33 36.1776 161.794 35.4945 162.445 35.0157C163.096 34.5369 163.894 34.2915 164.709 34.3207C165.061 34.3195 165.412 34.357 165.757 34.4328V37.2266C165.312 37.0942 164.848 37.0336 164.383 37.047C163.567 37.0143 162.77 37.2999 162.17 37.8409C161.569 38.3819 161.212 39.1342 161.177 39.9324C161.171 40.0868 161.176 40.2417 161.195 40.3954V49.0286H158.148V34.4726Z" fill="white"/>
<path d="M179.849 44.7533C179.438 47.395 176.806 49.2146 173.438 49.2146C169.106 49.2146 166.419 46.3774 166.419 41.8257C166.419 37.274 169.121 34.2993 173.308 34.2993C177.426 34.2993 180.017 37.0654 180.017 41.4784V42.5021H169.507V42.6829C169.461 43.1789 169.516 43.6786 169.669 44.1536C169.822 44.6287 170.068 45.0697 170.395 45.4514C170.722 45.8332 171.123 46.1482 171.574 46.3785C172.026 46.6087 172.519 46.7497 173.025 46.7934C173.187 46.8074 173.348 46.8118 173.51 46.8066C174.232 46.8723 174.957 46.7083 175.577 46.3389C176.196 45.9697 176.677 45.4148 176.948 44.7569L179.849 44.7533ZM169.52 40.4126H176.961C176.988 39.9535 176.922 39.4938 176.767 39.0598C176.611 38.6257 176.37 38.2259 176.057 37.8832C175.743 37.5405 175.364 37.2616 174.939 37.0625C174.516 36.8635 174.056 36.748 173.586 36.7229C173.495 36.7229 173.403 36.7157 173.31 36.7229C172.816 36.7201 172.324 36.8126 171.866 36.995C171.408 37.1776 170.991 37.4466 170.639 37.7868C170.287 38.1269 170.007 38.5315 169.815 38.9775C169.623 39.4235 169.523 39.9021 169.52 40.386V40.4126Z" fill="white"/>
<path d="M62.2 14.0378C62.8412 13.9927 63.4845 14.0874 64.0836 14.3151C64.6827 14.5429 65.2226 14.8979 65.6643 15.3545C66.106 15.8112 66.4382 16.358 66.6374 16.9556C66.8365 17.5533 66.8973 18.1867 66.8155 18.8102C66.8155 21.8751 65.1212 23.6332 62.2 23.6332H58.6562V14.0378H62.2ZM60.1827 22.273H62.0324C62.49 22.2999 62.9481 22.2266 63.3731 22.0585C63.7982 21.8904 64.1795 21.6317 64.4894 21.3012C64.7992 20.9707 65.0298 20.5768 65.1643 20.1481C65.2987 19.7196 65.3338 19.2669 65.2667 18.8234C65.322 18.43 65.2975 18.0297 65.1944 17.6455C65.0914 17.2612 64.9122 16.9006 64.6666 16.5842C64.4212 16.2677 64.1143 16.0018 63.7637 15.8012C63.4129 15.6008 63.0254 15.4699 62.6229 15.4159C62.4273 15.3902 62.2295 15.3826 62.0324 15.393H60.1827V22.273Z" fill="white"/>
<path d="M68.5371 20.0068C68.4486 19.1013 68.7314 18.1985 69.3235 17.4969C69.9155 16.7954 70.7684 16.3525 71.6944 16.2659C72.6204 16.1792 73.5437 16.4558 74.2611 17.0348C74.9785 17.6138 75.4313 18.4478 75.52 19.3532C75.5409 19.5706 75.5409 19.7894 75.52 20.0068C75.5677 20.4831 75.5127 20.9639 75.3589 21.4183C75.2051 21.8727 74.9558 22.2906 74.6271 22.6452C74.2982 22.9996 73.8971 23.283 73.4496 23.4768C73.002 23.6707 72.518 23.7709 72.0286 23.7709C71.5391 23.7709 71.0551 23.6707 70.6075 23.4768C70.16 23.283 69.7589 22.9996 69.4302 22.6452C69.1013 22.2906 68.852 21.8727 68.6982 21.4183C68.5444 20.9639 68.4896 20.4831 68.5371 20.0068ZM74.0168 20.0068C74.0168 18.4392 73.2956 17.5193 72.0304 17.5193C70.7653 17.5193 70.0464 18.4368 70.0464 20.0068C70.0464 21.5766 70.7603 22.499 72.0304 22.499C73.3005 22.499 74.0168 21.5827 74.0168 20.0068Z" fill="white"/>
<path d="M84.8002 23.6335H83.2848L81.7608 18.2993H81.6374L80.1158 23.6335H78.614L76.5732 16.3989H78.0529L79.3796 21.9237H79.4881L81.0109 16.3989H82.4143L83.9371 21.9237H84.0518L85.3723 16.3989H86.8335L84.8002 23.6335Z" fill="white"/>
<path d="M88.5508 16.3884H89.9565V17.5386H90.0662C90.2521 17.1259 90.5646 16.7801 90.9606 16.5491C91.3566 16.3182 91.8163 16.2134 92.2759 16.2497C92.636 16.2237 92.9973 16.2772 93.3335 16.4062C93.6696 16.5351 93.9717 16.7362 94.2177 16.9947C94.4636 17.2531 94.6471 17.5623 94.7545 17.8994C94.8619 18.2365 94.8904 18.5928 94.8382 18.9421V23.6312H93.377V19.3002C93.377 18.1367 92.8591 17.5591 91.7741 17.5591C91.5513 17.5489 91.3288 17.5816 91.119 17.6556C90.9092 17.7295 90.7162 17.8431 90.5515 17.9898C90.3866 18.1367 90.2529 18.3138 90.158 18.5111C90.063 18.7083 90.0089 18.922 89.9985 19.1398C89.9946 19.2244 89.9974 19.309 90.007 19.393V23.6312H88.5508V16.3884Z" fill="white"/>
<path d="M97.166 13.5637H98.6272V23.6319H97.166V13.5637Z" fill="white"/>
<path d="M100.658 20.0068C100.614 19.5584 100.661 19.106 100.796 18.6754C100.931 18.2449 101.152 17.8444 101.445 17.497C101.738 17.1498 102.099 16.8623 102.505 16.6512C102.912 16.44 103.358 16.3094 103.816 16.2665C104.742 16.18 105.665 16.4568 106.383 17.0358C107.1 17.6149 107.553 18.449 107.641 19.3544C107.662 19.5714 107.662 19.7898 107.641 20.0068C107.689 20.4831 107.634 20.964 107.48 21.4183C107.326 21.8727 107.077 22.2906 106.748 22.6452C106.419 22.9997 106.018 23.283 105.571 23.4769C105.123 23.6707 104.639 23.7709 104.15 23.7709C103.66 23.7709 103.176 23.6707 102.729 23.4769C102.281 23.283 101.88 22.9997 101.551 22.6452C101.222 22.2906 100.973 21.8727 100.819 21.4183C100.665 20.964 100.611 20.4831 100.658 20.0068ZM106.138 20.0068C106.138 18.4392 105.417 17.5193 104.152 17.5193C102.886 17.5193 102.168 18.4368 102.168 20.0068C102.168 21.5767 102.881 22.499 104.152 22.499C105.422 22.499 106.138 21.5827 106.138 20.0068Z" fill="white"/>
<path d="M109.18 21.5838C109.18 20.2805 110.166 19.5341 111.933 19.422L113.938 19.3087V18.6901C113.938 17.9257 113.421 17.494 112.423 17.494C111.606 17.494 111.042 17.787 110.88 18.2983H109.465C109.615 17.0552 110.811 16.2581 112.49 16.2581C114.34 16.2581 115.393 17.1613 115.393 18.6901V23.6337H113.986V22.6173H113.87C113.636 22.9815 113.307 23.2787 112.917 23.4782C112.527 23.6776 112.09 23.7725 111.651 23.7531C111.061 23.8131 110.471 23.6416 110.01 23.2761C109.549 22.9108 109.256 22.3814 109.194 21.8045C109.185 21.7297 109.18 21.6562 109.18 21.5838ZM113.938 20.9653V20.3624L112.13 20.4746C111.111 20.5421 110.651 20.8809 110.651 21.5187C110.651 22.1567 111.229 22.5498 112.023 22.5498C112.484 22.5952 112.944 22.4599 113.303 22.1737C113.661 21.8874 113.889 21.4736 113.936 21.0232L113.938 20.9653Z" fill="white"/>
<path d="M117.312 20.0069C117.312 17.7161 118.515 16.2691 120.385 16.2691C120.848 16.2482 121.307 16.3564 121.709 16.5813C122.111 16.8061 122.439 17.1382 122.655 17.5388H122.765V13.5598H124.226V23.6326H122.822V22.4896H122.711C122.478 22.8876 122.138 23.2159 121.728 23.4387C121.318 23.6613 120.854 23.7702 120.385 23.7532C118.506 23.7532 117.312 22.3063 117.312 20.0069ZM118.822 20.0069C118.822 21.5419 119.562 22.4667 120.795 22.4667C122.028 22.4667 122.787 21.5287 122.787 20.0129C122.787 18.4974 122.019 17.5533 120.795 17.5533C119.57 17.5533 118.822 18.4841 118.822 20.0069Z" fill="white"/>
<path d="M139.215 16.3884H140.621V17.5386H140.73C140.916 17.1259 141.228 16.7801 141.625 16.5491C142.02 16.3182 142.48 16.2134 142.939 16.2497C143.577 16.2028 144.206 16.4051 144.69 16.8121C145.175 17.2191 145.474 17.7975 145.522 18.42C145.534 18.5942 145.527 18.7693 145.502 18.9421V23.6312H144.04V19.3002C144.04 18.1367 143.524 17.5591 142.438 17.5591C142.216 17.5487 141.992 17.5814 141.783 17.6552C141.573 17.7291 141.38 17.8427 141.215 17.9894C141.05 18.1363 140.916 18.3135 140.821 18.5108C140.727 18.7083 140.672 18.922 140.662 19.1398C140.658 19.2242 140.66 19.3089 140.67 19.393V23.6312H139.208L139.215 16.3884Z" fill="white"/>
<path d="M153.757 14.5894V16.4246H155.361V17.6303H153.757V21.3525C153.757 22.1109 154.077 22.4376 154.805 22.4376C154.991 22.4376 155.177 22.4268 155.362 22.4051V23.5951C155.099 23.6407 154.834 23.6653 154.567 23.6687C152.942 23.6687 152.295 23.1092 152.295 21.7142V17.6267H151.119V16.421H152.295V14.5894H153.757Z" fill="white"/>
<path d="M157.358 13.5637H158.805V17.5524H158.921C159.115 17.1356 159.436 16.7875 159.84 16.5556C160.245 16.3236 160.711 16.2191 161.179 16.2562C161.499 16.2391 161.819 16.2838 162.12 16.3876C162.423 16.4916 162.7 16.6526 162.939 16.8618C163.177 17.0707 163.372 17.3237 163.51 17.6061C163.648 17.8884 163.728 18.1947 163.745 18.5073C163.755 18.6567 163.748 18.8066 163.727 18.9547V23.6319H162.265V19.3068C162.265 18.1504 161.714 17.5656 160.683 17.5656C160.456 17.547 160.229 17.5723 160.012 17.64C159.796 17.7078 159.595 17.8166 159.421 17.9603C159.248 18.104 159.106 18.2798 159.002 18.4776C158.898 18.6753 158.835 18.8911 158.817 19.1127C158.809 19.2085 158.809 19.3049 158.817 19.4009V23.6319H157.356L157.358 13.5637Z" fill="white"/>
<path d="M172.247 21.6746C172.049 22.3362 171.619 22.9083 171.032 23.2912C170.447 23.6741 169.742 23.8433 169.042 23.7691C168.599 23.7809 168.16 23.7076 167.747 23.5531C167.335 23.3987 166.957 23.1662 166.637 22.869C166.315 22.5718 166.058 22.2156 165.879 21.8209C165.698 21.4264 165.6 21.0009 165.588 20.569C165.584 20.3896 165.593 20.2102 165.617 20.0324C165.498 19.1548 165.739 18.2666 166.288 17.563C166.839 16.8594 167.651 16.398 168.549 16.2801C168.709 16.2591 168.87 16.2494 169.032 16.2512C171.091 16.2512 172.334 17.627 172.334 19.8998V20.399H167.106V20.4786C167.063 20.9844 167.226 21.4864 167.561 21.8742C167.897 22.2619 168.376 22.5038 168.893 22.5465C168.954 22.5465 169.016 22.5537 169.078 22.5465C169.427 22.5875 169.781 22.5259 170.096 22.3697C170.409 22.2133 170.668 21.9694 170.839 21.6686L172.247 21.6746ZM167.107 19.3416H170.847C170.882 18.8796 170.728 18.4232 170.419 18.0726C170.109 17.7219 169.67 17.5057 169.197 17.4715C169.141 17.4684 169.082 17.4684 169.025 17.4715C168.524 17.4653 168.041 17.6534 167.682 17.9946C167.323 18.3359 167.116 18.8023 167.107 19.2921V19.3392V19.3416Z" fill="white"/>
<g filter="url(#filter0_d_1547_4041)">
<path d="M130.271 20.0068C130.182 19.1013 130.465 18.1985 131.057 17.4969C131.649 16.7954 132.502 16.3525 133.428 16.2659C134.354 16.1792 135.277 16.4558 135.995 17.0348C136.712 17.6138 137.165 18.4478 137.253 19.3533C137.275 19.5706 137.275 19.7894 137.253 20.0068C137.303 20.4575 137.26 20.9132 137.129 21.3477C136.996 21.7821 136.778 22.1867 136.485 22.5381C136.192 22.8895 135.832 23.1806 135.423 23.3949C135.015 23.6089 134.567 23.7418 134.105 23.7856C133.644 23.8296 133.178 23.7836 132.735 23.6505C132.292 23.5174 131.88 23.2997 131.524 23.0102C131.167 22.7206 130.873 22.3648 130.658 21.9633C130.443 21.5618 130.311 21.1226 130.271 20.6711C130.25 20.4501 130.25 20.2277 130.271 20.0068ZM135.75 20.0068C135.75 18.4392 135.031 17.5193 133.765 17.5193C132.5 17.5193 131.78 18.4368 131.78 20.0068C131.78 21.5766 132.495 22.499 133.765 22.499C135.036 22.499 135.75 21.5827 135.75 20.0068Z" fill="white"/>
<path d="M130.958 20.0057L130.952 20.0712C130.935 20.2493 130.935 20.4285 130.952 20.6068L130.952 20.6101L130.952 20.6101C130.984 20.9693 131.089 21.3194 131.261 21.6403L130.958 20.0057ZM130.958 20.0057L130.951 19.9402M130.958 20.0057L130.951 19.9402M130.951 19.9402C130.881 19.2202 131.105 18.5 131.58 17.938L131.58 17.938M130.951 19.9402L131.58 17.938M131.58 17.938C131.646 17.8595 131.716 17.785 131.79 17.7147C131.781 17.726 131.772 17.7374 131.763 17.7489C131.296 18.336 131.096 19.1285 131.096 20.0068C131.096 20.884 131.295 21.6774 131.76 22.2658C131.814 22.3335 131.87 22.3974 131.929 22.4576M131.58 17.938L131.929 22.4576M131.929 22.4576C131.654 22.2288 131.427 21.9513 131.261 21.6404L131.929 22.4576ZM136.572 19.4198L136.573 19.4204C136.59 19.5931 136.59 19.7669 136.573 19.9397L136.566 20.0107L136.573 20.0816C136.613 20.4393 136.579 20.8021 136.474 21.1489C136.368 21.4956 136.194 21.819 135.96 22.1004C135.854 22.2272 135.737 22.3443 135.611 22.4505C135.666 22.3932 135.72 22.3325 135.77 22.2684C136.236 21.6802 136.434 20.8862 136.434 20.0068C136.434 19.1297 136.234 18.3373 135.768 17.7501C135.764 17.7456 135.761 17.7412 135.757 17.7368C136.221 18.1879 136.51 18.7832 136.572 19.4198Z" stroke="white" stroke-width="1.36773"/>
</g>
</g>
</g>
<defs>
<filter id="filter0_d_1547_4041" x="124.784" y="16.2502" width="17.9604" height="18.4934" filterUnits="userSpaceOnUse" color-interpolation-filters="sRGB">
<feFlood flood-opacity="0" result="BackgroundImageFix"/>
<feColorMatrix in="SourceAlpha" type="matrix" values="0 0 0 0 0 0 0 0 0 0 0 0 0 0 0 0 0 0 127 0" result="hardAlpha"/>
<feOffset dy="5.47094"/>
<feGaussianBlur stdDeviation="2.73547"/>
<feComposite in2="hardAlpha" operator="out"/>
<feColorMatrix type="matrix" values="0 0 0 0 0 0 0 0 0 0 0 0 0 0 0 0 0 0 0.25 0"/>
<feBlend mode="normal" in2="BackgroundImageFix" result="effect1_dropShadow_1547_4041"/>
<feBlend mode="normal" in="SourceGraphic" in2="effect1_dropShadow_1547_4041" result="shape"/>
</filter>
<clipPath id="clip0_1547_4041">
<rect width="196.954" height="64.3049" fill="white"/>
</clipPath>
<clipPath id="clip1_1547_4041">
<rect width="196.934" height="64.3049" fill="white" transform="translate(0.00976562)"/>
</clipPath>
</defs>
</svg>
