<svg width="160" height="47" viewBox="0 0 160 47" fill="none" xmlns="http://www.w3.org/2000/svg">
<g clip-path="url(#clip0_1554_4161)">
<g clip-path="url(#clip1_1554_4161)">
<path d="M154.072 0.416016H6.52798C3.26838 0.416016 0.625977 2.99991 0.625977 6.1873V40.8133C0.625977 44.0007 3.26838 46.5846 6.52798 46.5846H154.072C157.331 46.5846 159.974 44.0007 159.974 40.8133V6.1873C159.974 2.99991 157.331 0.416016 154.072 0.416016Z" fill="black"/>
<path d="M154.071 1.33967C155.386 1.34103 156.646 1.85221 157.575 2.76102C158.505 3.66983 159.027 4.90204 159.029 6.18729V40.8132C159.027 42.0985 158.504 43.3305 157.575 44.2393C156.645 45.148 155.386 45.6592 154.071 45.6609H6.52798C5.21369 45.6592 3.95369 45.148 3.02435 44.2393C2.095 43.3305 1.57219 42.0985 1.57055 40.8132V6.18729C1.57195 4.90204 2.0947 3.66983 3.0241 2.76102C3.95349 1.85221 5.21361 1.34103 6.52798 1.33967H154.071ZM154.071 0.416016H6.52798C4.96403 0.420355 3.46541 1.02979 2.35953 2.11117C1.25365 3.19257 0.630415 4.65799 0.625977 6.18729V40.8132C0.630648 42.3424 1.25399 43.8076 2.35984 44.8888C3.4657 45.97 4.96418 46.5793 6.52798 46.5837H154.071C155.634 46.5791 157.133 45.9697 158.239 44.8885C159.344 43.8073 159.967 42.3422 159.972 40.8132V6.18729C159.967 4.65814 159.345 3.19285 158.239 2.11148C157.134 1.03012 155.635 0.420584 154.071 0.416016Z" fill="#808080"/>
<path d="M56.5968 12.2385C56.6183 12.662 56.5513 13.0853 56.4 13.4827C56.2487 13.88 56.0162 14.2431 55.7169 14.5498C55.3815 14.8902 54.9763 15.1575 54.528 15.3341C54.0796 15.5107 53.5981 15.5927 53.115 15.5747C52.629 15.579 52.147 15.4883 51.6974 15.3078C51.2478 15.1273 50.8395 14.8608 50.4968 14.5239C50.154 14.1869 49.8835 13.7863 49.7014 13.3456C49.5192 12.905 49.4289 12.4333 49.4359 11.958C49.4289 11.4827 49.5192 11.0109 49.7014 10.5703C49.8835 10.1295 50.154 9.72892 50.4967 9.39189C50.8394 9.05486 51.2477 8.78824 51.6974 8.60767C52.1469 8.42711 52.629 8.33626 53.115 8.34047C53.6148 8.33906 54.1095 8.43775 54.5686 8.63046C54.9952 8.79918 55.3747 9.0644 55.6761 9.40435L55.0565 10.0103C54.8192 9.73724 54.5211 9.52114 54.1849 9.3787C53.8488 9.23626 53.4837 9.17129 53.1177 9.1888C52.749 9.18695 52.3837 9.25795 52.0437 9.39753C51.7037 9.53711 51.3961 9.74241 51.1392 10.0011C50.8823 10.2598 50.6816 10.5665 50.5489 10.903C50.4162 11.2393 50.3545 11.5985 50.3672 11.9589C50.3589 12.498 50.5144 13.0275 50.8141 13.4801C51.1137 13.9327 51.5441 14.2882 52.0506 14.5014C52.557 14.7146 53.1169 14.7761 53.659 14.6778C54.2013 14.5796 54.7015 14.3263 55.0963 13.9499C55.4592 13.5666 55.6697 13.0687 55.6894 12.5467H53.1177V11.7147H56.5499C56.5812 11.8877 56.5969 12.0629 56.5968 12.2385Z" fill="white" stroke="white" stroke-width="0.29934" stroke-miterlimit="10"/>
<path d="M62.0375 9.34751H58.8125V11.5428H61.7206V12.3746H58.8125V14.5708H62.0375V15.4217H57.9033V8.49658H62.0375V9.34751Z" fill="white" stroke="white" stroke-width="0.29934" stroke-miterlimit="10"/>
<path d="M65.8749 15.4217H64.964V9.34751H62.9863V8.49658H67.8552V9.34751H65.8776L65.8749 15.4217Z" fill="white" stroke="white" stroke-width="0.29934" stroke-miterlimit="10"/>
<path d="M71.374 15.4217V8.49658H72.284V15.4217H71.374Z" fill="white" stroke="white" stroke-width="0.29934" stroke-miterlimit="10"/>
<path d="M76.3212 15.4217H75.4103V9.34751H73.4326V8.49658H78.3015V9.34751H76.3238L76.3212 15.4217Z" fill="white" stroke="white" stroke-width="0.29934" stroke-miterlimit="10"/>
<path d="M87.5111 14.5252C86.8216 15.1971 85.888 15.5743 84.9146 15.5743C83.9413 15.5743 83.0076 15.1971 82.3182 14.5252C81.9773 14.1874 81.7094 13.786 81.5303 13.345C81.3511 12.9039 81.2645 12.4321 81.2753 11.9577C81.2644 11.4831 81.351 11.0112 81.5301 10.57C81.7093 10.1288 81.9773 9.7273 82.3182 9.38935C82.6591 9.05631 83.0638 8.79224 83.5091 8.61226C83.9544 8.43226 84.4316 8.33985 84.9135 8.34033C85.3954 8.34082 85.8724 8.43417 86.3174 8.61506C86.7623 8.79595 87.1664 9.06082 87.5067 9.39454C87.848 9.73137 88.1167 10.1318 88.2967 10.5721C88.4768 11.0124 88.5645 11.4836 88.5548 11.9577C88.5652 12.4322 88.4782 12.9039 88.2989 13.3449C88.1197 13.7859 87.8517 14.1872 87.5111 14.5252ZM82.9901 13.9453C83.5007 14.4435 84.1928 14.7234 84.9142 14.7234C85.6357 14.7234 86.3276 14.4435 86.8383 13.9453C87.1004 13.6827 87.3053 13.3709 87.4406 13.0286C87.5758 12.6864 87.6387 12.3209 87.6253 11.9543C87.6385 11.5876 87.5757 11.2221 87.4404 10.8799C87.3051 10.5377 87.1002 10.2259 86.8383 9.96327C86.3276 9.46495 85.6357 9.18508 84.9142 9.18508C84.1928 9.18508 83.5007 9.46495 82.9901 9.96327C82.7284 10.2261 82.5238 10.5379 82.3887 10.8801C82.2535 11.2223 82.1907 11.5877 82.204 11.9543C82.1906 12.3208 82.2534 12.6863 82.3885 13.0284C82.5236 13.3706 82.7283 13.6825 82.9901 13.9453Z" fill="white" stroke="white" stroke-width="0.29934" stroke-miterlimit="10"/>
<path d="M89.832 15.4217V8.49658H90.9404L94.3823 13.8834H94.4212L94.3823 12.5487V8.49658H95.2905V15.4217H94.3406L90.7403 9.77341H90.7005L90.7403 11.1083V15.4217H89.832Z" fill="white" stroke="white" stroke-width="0.29934" stroke-miterlimit="10"/>
<path d="M81.0506 25.5191C80.0586 25.5229 79.0899 25.814 78.2669 26.3557C77.4439 26.8974 76.8034 27.6654 76.4264 28.5628C76.0495 29.4601 75.9528 30.4465 76.1487 31.3975C76.3446 32.3485 76.8243 33.2215 77.5272 33.9061C78.23 34.5908 79.1246 35.0564 80.0979 35.2443C81.0712 35.4322 82.0796 35.3339 82.9958 34.9618C83.912 34.5896 84.6949 33.9604 85.2457 33.1536C85.7965 32.3467 86.0904 31.3983 86.0904 30.4282C86.1003 29.7793 85.9765 29.135 85.7265 28.5338C85.4765 27.9326 85.1052 27.3868 84.635 26.9287C84.1648 26.4706 83.6052 26.1098 82.9894 25.8677C82.3736 25.6255 81.7143 25.507 81.0506 25.5191ZM81.0506 33.4026C80.4398 33.4451 79.8299 33.3069 79.3006 33.0059C78.7711 32.7048 78.3466 32.2548 78.0824 31.7145C77.8182 31.1743 77.7265 30.5687 77.8192 29.9768C77.9118 29.3848 78.1847 28.8338 78.6021 28.3955C79.0194 27.9573 79.5621 27.6521 80.1594 27.5197C80.7567 27.3873 81.3808 27.4337 81.9507 27.653C82.5206 27.8723 83.0097 28.2544 83.3545 28.7493C83.6992 29.2443 83.8835 29.8294 83.8834 30.4282C83.9022 30.8067 83.8434 31.1851 83.7103 31.5409C83.5772 31.8968 83.3728 32.2231 83.1088 32.5005C82.8447 32.7779 82.5267 33.0009 82.1733 33.1563C81.8197 33.3116 81.4381 33.3963 81.0506 33.4052V33.4026ZM70.0602 25.5191C69.0681 25.5227 68.0993 25.8137 67.2761 26.3553C66.4531 26.8969 65.8125 27.6649 65.4354 28.5621C65.0583 29.4595 64.9614 30.4459 65.1573 31.397C65.3531 32.3481 65.8327 33.2211 66.5355 33.9058C67.2384 34.5905 68.1329 35.0563 69.1062 35.2443C70.0796 35.4322 71.088 35.3339 72.0042 34.9619C72.9205 34.5897 73.7034 33.9605 74.2543 33.1537C74.8051 32.3467 75.099 31.3984 75.0991 30.4282C75.109 29.7793 74.9852 29.1351 74.7352 28.534C74.4853 27.9329 74.1141 27.3871 73.644 26.929C73.1739 26.471 72.6143 26.1102 71.9986 25.8679C71.3829 25.6257 70.7238 25.5071 70.0602 25.5191ZM70.0602 33.4026C69.4493 33.4451 68.8395 33.3069 68.3101 33.0059C67.7806 32.7048 67.3562 32.2548 67.092 31.7145C66.8278 31.1743 66.7361 30.5687 66.8288 29.9768C66.9214 29.3848 67.1942 28.8338 67.6115 28.3955C68.0289 27.9573 68.5716 27.6521 69.1689 27.5197C69.7661 27.3873 70.3904 27.4337 70.9602 27.653C71.5302 27.8723 72.0193 28.2544 72.364 28.7493C72.7088 29.2443 72.8931 29.8294 72.893 30.4282C72.9118 30.8067 72.8529 31.1851 72.7199 31.5409C72.5868 31.8968 72.3822 32.2231 72.1183 32.5005C71.8543 32.7779 71.5362 33.0009 71.1827 33.1563C70.8293 33.3116 70.4476 33.3963 70.0602 33.4052V33.4026ZM56.9832 27.0254V29.1073H62.0797C62.0062 30.084 61.5976 31.008 60.9199 31.7293C60.4093 32.2385 59.795 32.6373 59.117 32.9001C58.4389 33.1627 57.712 33.2836 56.9832 33.2546C55.4805 33.2546 54.0395 32.6708 52.977 31.6319C51.9145 30.5929 51.3176 29.1838 51.3176 27.7144C51.3176 26.2451 51.9145 24.8359 52.977 23.7969C54.0395 22.758 55.4805 22.1743 56.9832 22.1743C58.4139 22.1561 59.7942 22.6905 60.8244 23.6614L62.3293 22.1898C61.6266 21.5094 60.792 20.9729 59.8744 20.6119C58.9568 20.2511 57.9748 20.0729 56.9859 20.088C55.955 20.0774 54.9321 20.2666 53.9766 20.645C53.0209 21.0233 52.1515 21.5832 51.4186 22.2921C50.6858 23.0012 50.104 23.8454 49.7069 24.7757C49.3099 25.7061 49.1055 26.7041 49.1055 27.7123C49.1055 28.7203 49.3099 29.7185 49.7069 30.6488C50.104 31.5791 50.6858 32.4233 51.4186 33.1323C52.1515 33.8414 53.0209 34.4012 53.9766 34.7796C54.9321 35.1578 55.955 35.3472 56.9859 35.3364C57.9957 35.3772 59.0029 35.2076 59.9406 34.8388C60.8783 34.4701 61.7252 33.9105 62.4249 33.1974C63.6668 31.8714 64.3287 30.1228 64.2688 28.3256C64.2739 27.8901 64.2357 27.4553 64.1546 27.0271L56.9832 27.0254ZM110.464 28.6424C110.161 27.7529 109.587 26.976 108.817 26.4172C108.048 25.8584 107.121 25.5448 106.162 25.5191C105.518 25.5231 104.88 25.6548 104.289 25.9066C103.698 26.1583 103.165 26.5246 102.721 26.9834C102.279 27.4423 101.936 27.9842 101.715 28.5763C101.492 29.1684 101.395 29.7983 101.428 30.4282C101.414 31.0737 101.532 31.7153 101.777 32.3149C102.022 32.9145 102.388 33.4597 102.853 33.918C103.318 34.3761 103.873 34.738 104.484 34.9819C105.096 35.2258 105.751 35.3466 106.411 35.3372C107.238 35.3417 108.053 35.1452 108.783 34.7654C109.513 34.3855 110.135 33.8342 110.594 33.1611L108.882 32.0452C108.626 32.4617 108.264 32.8058 107.83 33.0438C107.397 33.2818 106.908 33.4054 106.411 33.4026C105.899 33.4217 105.393 33.2902 104.96 33.025C104.525 32.7599 104.183 32.3733 103.976 31.9154L110.694 29.2033L110.464 28.6424ZM103.612 30.2802C103.588 29.9229 103.637 29.5646 103.757 29.2262C103.877 28.8878 104.064 28.5762 104.308 28.3096C104.553 28.0429 104.849 27.8265 105.179 27.6732C105.511 27.5199 105.869 27.4326 106.235 27.4166C106.615 27.3932 106.994 27.4792 107.324 27.6638C107.654 27.8484 107.922 28.1236 108.094 28.4554L103.612 30.2802ZM98.1572 35.0413H100.364V20.6127H98.1572V35.0413ZM94.5437 26.6177H94.4685C94.1332 26.2612 93.724 25.9788 93.2681 25.7893C92.8123 25.5998 92.3203 25.5078 91.8252 25.5191C90.5302 25.5723 89.3063 26.1128 88.4092 27.0276C87.5121 27.9424 87.0113 29.1608 87.0113 30.4282C87.0113 31.6956 87.5121 32.914 88.4092 33.8288C89.3063 34.7436 90.5302 35.2841 91.8252 35.3372C92.3221 35.3501 92.8161 35.2569 93.2725 35.0642C93.729 34.8715 94.1371 34.584 94.4685 34.2215H94.5437V34.9278C94.5437 36.8063 93.5177 37.8096 91.8632 37.8096C91.3118 37.7968 90.7767 37.6237 90.3263 37.3124C89.8759 37.0012 89.5305 36.5658 89.334 36.0618L87.413 36.8409C87.7752 37.7026 88.3922 38.4391 89.185 38.9559C89.9779 39.4727 90.9104 39.7463 91.8632 39.7417C94.4491 39.7417 96.6357 38.2536 96.6357 34.6274V25.8186H94.5437V26.6177ZM92.0146 33.4052C91.2525 33.3416 90.5427 33.0006 90.0254 32.4497C89.508 31.8989 89.2211 31.1782 89.2211 30.4304C89.2211 29.6825 89.508 28.9619 90.0254 28.411C90.5427 27.8602 91.2525 27.5192 92.0146 27.4556C92.3936 27.4743 92.765 27.5672 93.1066 27.729C93.4481 27.8908 93.753 28.118 94.003 28.3972C94.2531 28.6765 94.4432 29.002 94.5621 29.3544C94.681 29.7069 94.7262 30.0791 94.6952 30.449C94.7248 30.8167 94.6784 31.1865 94.5586 31.5363C94.4388 31.886 94.2481 32.2085 93.9977 32.4845C93.7475 32.7605 93.4428 32.9843 93.1021 33.1425C92.7613 33.3006 92.3914 33.39 92.0146 33.4052ZM120.793 20.6127H115.514V35.0413H117.717V29.5756H120.793C121.416 29.6095 122.04 29.5187 122.625 29.3088C123.212 29.0989 123.748 28.7743 124.202 28.3548C124.656 27.9353 125.016 27.4298 125.264 26.8692C125.51 26.3085 125.637 25.7045 125.637 25.0941C125.637 24.4837 125.51 23.8797 125.264 23.3191C125.016 22.7584 124.656 22.2529 124.202 21.8334C123.748 21.414 123.212 21.0894 122.625 20.8794C122.04 20.6695 121.416 20.5788 120.793 20.6127ZM120.85 27.5672H117.717V22.6209H120.85C121.187 22.6122 121.523 22.6698 121.838 22.7901C122.152 22.9105 122.439 23.0912 122.681 23.3217C122.923 23.5523 123.116 23.8278 123.247 24.1322C123.379 24.4366 123.446 24.7637 123.446 25.0941C123.446 25.4245 123.379 25.7516 123.247 26.0559C123.116 26.3604 122.923 26.636 122.681 26.8665C122.439 27.097 122.152 27.2778 121.838 27.3981C121.523 27.5185 121.187 27.576 120.85 27.5672ZM134.461 25.4949C133.657 25.449 132.857 25.6336 132.159 26.0261C131.461 26.4184 130.895 27.0017 130.531 27.704L132.487 28.5022C132.681 28.1536 132.974 27.8679 133.331 27.68C133.689 27.4922 134.094 27.4102 134.499 27.4443C135.057 27.3921 135.614 27.5579 136.048 27.9055C136.482 28.2533 136.758 28.7546 136.814 29.3003V29.4491C136.107 29.0812 135.318 28.8896 134.517 28.8917C132.41 28.8917 130.268 30.024 130.268 32.1404C130.268 34.0709 131.996 35.3148 133.933 35.3148C134.487 35.3468 135.04 35.2328 135.534 34.9846C136.028 34.7364 136.445 34.3632 136.741 33.9038H136.817V35.0178H138.942V29.4864C138.942 26.9241 136.986 25.4949 134.461 25.4949H134.461ZM134.196 33.4026C133.474 33.4026 132.467 33.0503 132.467 32.1777C132.467 31.0636 133.721 30.6368 134.803 30.6368C135.505 30.6184 136.201 30.7853 136.814 31.1198C136.734 31.7455 136.424 32.3214 135.942 32.741C135.462 33.1606 134.84 33.3956 134.196 33.4026ZM146.686 25.8108L144.161 32.066H144.085L141.465 25.8108H139.093L143.023 34.5539L140.782 39.4171H143.079L149.135 25.8108H146.686ZM126.85 35.0413H129.051V20.6127H126.85V35.0413Z" fill="white"/>
<path d="M12.944 9.12645C12.5569 9.57855 12.3615 10.1584 12.3978 10.7469V36.2533C12.3615 36.8418 12.5569 37.4217 12.944 37.8738L13.0325 37.9603L27.6392 23.6771V23.3395L13.0325 9.052L12.944 9.12645Z" fill="#85C5EC"/>
<path d="M32.5115 28.4337L27.6426 23.6727V23.335L32.5115 18.574L32.6213 18.6354L38.3922 21.8384C40.0397 22.7542 40.0397 24.2526 38.3922 25.1685L32.6213 28.3714L32.5115 28.4337Z" fill="url(#paint0_linear_1554_4161)"/>
<path d="M32.6229 28.3715L27.6416 23.5005L12.9463 37.8703C13.2821 38.1599 13.711 38.3254 14.1585 38.3383C14.6061 38.3511 15.0441 38.2103 15.3967 37.9404L32.6229 28.3715Z" fill="url(#paint1_linear_1554_4161)"/>
<path d="M32.6225 18.628L15.3937 9.05563C15.0411 8.78588 14.6032 8.64522 14.1556 8.65803C13.7081 8.67084 13.2793 8.83629 12.9434 9.12575L27.6386 23.4955L32.6225 18.628Z" fill="url(#paint2_linear_1554_4161)"/>
</g>
</g>
<defs>
<linearGradient id="paint0_linear_1554_4161" x1="37.3219" y1="23.5012" x2="8.78494" y2="23.5012" gradientUnits="userSpaceOnUse">
<stop stop-color="#F9DD4D"/>
<stop offset="0.376" stop-color="#F1BF44"/>
<stop offset="0.762" stop-color="#EAA73D"/>
<stop offset="1" stop-color="#E89E3A"/>
</linearGradient>
<linearGradient id="paint1_linear_1554_4161" x1="29.9167" y1="26.1476" x2="3.67664" y2="52.9811" gradientUnits="userSpaceOnUse">
<stop stop-color="#D44845"/>
<stop offset="1" stop-color="#B62E66"/>
</linearGradient>
<linearGradient id="paint2_linear_1554_4161" x1="2.95592" y1="-5.51062" x2="24.3796" y2="16.3983" gradientUnits="userSpaceOnUse">
<stop stop-color="#49946A"/>
<stop offset="0.39" stop-color="#69A669"/>
<stop offset="0.768" stop-color="#81B367"/>
<stop offset="1" stop-color="#8AB867"/>
</linearGradient>
<clipPath id="clip0_1554_4161">
<rect width="160" height="46.25" fill="white" transform="translate(0 0.375)"/>
</clipPath>
<clipPath id="clip1_1554_4161">
<rect width="159.948" height="46.25" fill="white" transform="translate(0.0263672 0.375)"/>
</clipPath>
</defs>
</svg>
