<svg width="219" height="64" viewBox="0 0 219 64" fill="none" xmlns="http://www.w3.org/2000/svg">
<g clip-path="url(#clip0_1547_4069)">
<g clip-path="url(#clip1_1547_4069)">
<path d="M210.729 0.0559082H8.92784C4.46958 0.0559082 0.855469 3.58998 0.855469 7.94949V55.3086C0.855469 59.6681 4.46958 63.2023 8.92784 63.2023H210.729C215.186 63.2023 218.801 59.6681 218.801 55.3086V7.94949C218.801 3.58998 215.186 0.0559082 210.729 0.0559082Z" fill="black"/>
<path d="M210.728 1.31922C212.526 1.32109 214.249 2.02024 215.52 3.26324C216.792 4.50626 217.506 6.1916 217.508 7.94948V55.3085C217.506 57.0664 216.79 58.7516 215.52 59.9945C214.248 61.2373 212.526 61.9366 210.728 61.9388H8.92784C7.13024 61.9366 5.4069 61.2373 4.1358 59.9945C2.86471 58.7516 2.14963 57.0664 2.14739 55.3085V7.94948C2.14931 6.1916 2.8643 4.50626 4.13546 3.26324C5.40662 2.02024 7.13013 1.32109 8.92784 1.31922H210.728ZM210.728 0.0559082H8.92784C6.78878 0.0618438 4.73906 0.895393 3.22651 2.37443C1.71396 3.85349 0.861539 5.8578 0.855469 7.94948V55.3085C0.861858 57.4001 1.71442 59.4041 3.22694 60.8828C4.73945 62.3616 6.78898 63.195 8.92784 63.201H210.728C212.866 63.1948 214.915 62.3612 216.428 60.8824C217.939 59.4037 218.792 57.3998 218.799 55.3085V7.94948C218.792 5.85801 217.941 3.85387 216.428 2.37486C214.916 0.895842 212.867 0.0621561 210.728 0.0559082Z" fill="#808080"/>
<path d="M77.4089 16.226C77.4383 16.8052 77.3467 17.3841 77.1398 17.9276C76.9329 18.4711 76.6149 18.9677 76.2054 19.3872C75.7467 19.8528 75.1925 20.2183 74.5793 20.4599C73.9661 20.7015 73.3076 20.8136 72.6468 20.789C71.9821 20.7949 71.3229 20.6708 70.7078 20.4239C70.0929 20.1771 69.5345 19.8126 69.0658 19.3517C68.5969 18.8908 68.2269 18.3429 67.9778 17.7402C67.7286 17.1376 67.6052 16.4923 67.6148 15.8424C67.6052 15.1922 67.7286 14.5469 67.9778 13.9442C68.2269 13.3414 68.5969 12.7935 69.0656 12.3325C69.5344 11.8716 70.0928 11.5069 70.7078 11.2599C71.3227 11.013 71.9821 10.8887 72.6468 10.8945C73.3304 10.8925 74.007 11.0275 74.6349 11.2911C75.2184 11.5219 75.7375 11.8846 76.1497 12.3496L75.3022 13.1784C74.9777 12.8049 74.57 12.5093 74.1102 12.3145C73.6504 12.1197 73.151 12.0308 72.6505 12.0548C72.1461 12.0522 71.6465 12.1493 71.1815 12.3403C70.7165 12.5312 70.2957 12.812 69.9444 13.1658C69.593 13.5196 69.3185 13.9391 69.137 14.3993C68.9556 14.8594 68.8711 15.3507 68.8885 15.8435C68.8772 16.5809 69.0899 17.3051 69.4997 17.9241C69.9096 18.5432 70.4981 19.0294 71.1909 19.321C71.8836 19.6126 72.6493 19.6967 73.3909 19.5623C74.1326 19.428 74.8167 19.0815 75.3566 18.5666C75.853 18.0424 76.1409 17.3615 76.1679 16.6474H72.6505V15.5096H77.3447C77.3876 15.7461 77.409 15.9857 77.4089 16.226Z" fill="white" stroke="white" stroke-width="0.409417" stroke-miterlimit="10"/>
<path d="M84.8498 12.2718H80.4389V15.2743H84.4163V16.4121H80.4389V19.4159H84.8498V20.5797H79.1953V11.1079H84.8498V12.2718Z" fill="white" stroke="white" stroke-width="0.409417" stroke-miterlimit="10"/>
<path d="M90.0983 20.5797H88.8524V12.2718H86.1475V11.1079H92.8068V12.2718H90.102L90.0983 20.5797Z" fill="white" stroke="white" stroke-width="0.409417" stroke-miterlimit="10"/>
<path d="M97.6191 20.5797V11.1079H98.8637V20.5797H97.6191Z" fill="white" stroke="white" stroke-width="0.409417" stroke-miterlimit="10"/>
<path d="M104.385 20.5797H103.139V12.2718H100.435V11.1079H107.094V12.2718H104.389L104.385 20.5797Z" fill="white" stroke="white" stroke-width="0.409417" stroke-miterlimit="10"/>
<path d="M119.691 19.3536C118.748 20.2725 117.471 20.7885 116.14 20.7885C114.809 20.7885 113.532 20.2725 112.589 19.3536C112.122 18.8915 111.756 18.3425 111.511 17.7393C111.266 17.136 111.148 16.4908 111.162 15.8418C111.147 15.1928 111.266 14.5473 111.511 13.9438C111.756 13.3404 112.122 12.7913 112.589 12.3291C113.055 11.8736 113.608 11.5124 114.218 11.2662C114.827 11.02 115.479 10.8936 116.138 10.8943C116.797 10.8949 117.45 11.0226 118.059 11.27C118.667 11.5175 119.22 11.8797 119.685 12.3362C120.152 12.7969 120.52 13.3446 120.766 13.9467C121.012 14.549 121.132 15.1934 121.119 15.8418C121.133 16.4909 121.014 17.136 120.769 17.7392C120.524 18.3424 120.157 18.8913 119.691 19.3536ZM113.508 18.5603C114.206 19.2418 115.153 19.6246 116.139 19.6246C117.126 19.6246 118.073 19.2418 118.771 18.5603C119.13 18.2012 119.41 17.7748 119.595 17.3066C119.78 16.8385 119.866 16.3387 119.847 15.8372C119.865 15.3356 119.78 14.8358 119.595 14.3678C119.409 13.8997 119.129 13.4732 118.771 13.114C118.073 12.4325 117.126 12.0497 116.139 12.0497C115.153 12.0497 114.206 12.4325 113.508 13.114C113.15 13.4735 112.87 13.9 112.685 14.3681C112.5 14.836 112.414 15.3358 112.433 15.8372C112.414 16.3385 112.5 16.8384 112.685 17.3064C112.87 17.7744 113.15 18.201 113.508 18.5603Z" fill="white" stroke="white" stroke-width="0.409417" stroke-miterlimit="10"/>
<path d="M122.864 20.5797V11.1079H124.38L129.088 18.4757H129.141L129.088 16.6501V11.1079H130.33V20.5797H129.031L124.106 12.8543H124.052L124.106 14.68V20.5797H122.864Z" fill="white" stroke="white" stroke-width="0.409417" stroke-miterlimit="10"/>
<path d="M110.855 34.3905C109.498 34.3956 108.173 34.7937 107.047 35.5346C105.922 36.2755 105.046 37.326 104.53 38.5533C104.014 39.7807 103.882 41.1298 104.15 42.4305C104.418 43.7312 105.074 44.9252 106.035 45.8616C106.997 46.7981 108.22 47.4348 109.551 47.6918C110.883 47.9488 112.262 47.8144 113.515 47.3054C114.768 46.7965 115.839 45.9359 116.592 44.8323C117.346 43.7287 117.748 42.4316 117.748 41.1047C117.761 40.2171 117.592 39.336 117.25 38.5137C116.908 37.6914 116.4 36.9449 115.757 36.3184C115.114 35.6918 114.349 35.1983 113.506 34.8671C112.664 34.5359 111.762 34.3738 110.855 34.3905ZM110.855 45.1729C110.019 45.2311 109.185 45.042 108.461 44.6303C107.737 44.2185 107.156 43.603 106.795 42.8641C106.434 42.1252 106.308 41.2969 106.435 40.4873C106.562 39.6776 106.935 38.9241 107.506 38.3246C108.076 37.7252 108.819 37.3078 109.636 37.1266C110.453 36.9455 111.306 37.0091 112.086 37.309C112.865 37.609 113.534 38.1315 114.006 38.8085C114.477 39.4855 114.729 40.2857 114.729 41.1047C114.755 41.6224 114.674 42.1399 114.492 42.6266C114.31 43.1134 114.031 43.5597 113.67 43.9391C113.308 44.3185 112.873 44.6234 112.39 44.836C111.907 45.0485 111.385 45.1643 110.855 45.1764V45.1729ZM95.8226 34.3905C94.4657 34.3953 93.1406 34.7933 92.0147 35.5341C90.889 36.2749 90.0129 37.3252 89.4971 38.5524C88.9813 39.7797 88.8488 41.129 89.1167 42.4298C89.3845 43.7306 90.0404 44.9247 91.0017 45.8612C91.9631 46.7977 93.1866 47.4347 94.5178 47.6918C95.8491 47.9488 97.2284 47.8144 98.4815 47.3056C99.7347 46.7966 100.806 45.936 101.559 44.8325C102.312 43.7287 102.714 42.4317 102.715 41.1047C102.728 40.2173 102.559 39.3362 102.217 38.5139C101.875 37.6918 101.367 36.9453 100.724 36.3188C100.081 35.6924 99.316 35.1988 98.4739 34.8675C97.6318 34.5362 96.7302 34.374 95.8226 34.3905ZM95.8226 45.1729C94.9871 45.2311 94.153 45.042 93.4289 44.6303C92.7048 44.2185 92.1243 43.603 91.7629 42.8641C91.4015 42.1252 91.2761 41.2969 91.4029 40.4873C91.5295 39.6776 91.9027 38.9241 92.4735 38.3246C93.0444 37.7252 93.7866 37.3078 94.6036 37.1266C95.4204 36.9455 96.2742 37.0091 97.0536 37.309C97.8331 37.609 98.5021 38.1315 98.9736 38.8085C99.4452 39.4855 99.6973 40.2857 99.6971 41.1047C99.7228 41.6224 99.6423 42.1399 99.4603 42.6266C99.2783 43.1134 98.9985 43.5597 98.6376 43.9391C98.2765 44.3185 97.8414 44.6234 97.3579 44.836C96.8745 45.0485 96.3525 45.1643 95.8226 45.1764V45.1729ZM77.9367 36.4505V39.2981H84.9073C84.8069 40.634 84.248 41.8977 83.3212 42.8842C82.6227 43.5807 81.7825 44.1262 80.8552 44.4856C79.9278 44.8448 78.9336 45.0101 77.9367 44.9704C75.8815 44.9704 73.9105 44.1721 72.4573 42.751C71.0041 41.33 70.1877 39.4027 70.1877 37.393C70.1877 35.3833 71.0041 33.456 72.4573 32.0349C73.9105 30.614 75.8815 29.8156 77.9367 29.8156C79.8935 29.7907 81.7815 30.5216 83.1904 31.8496L85.2488 29.8368C84.2877 28.9061 83.1461 28.1724 81.8911 27.6787C80.6361 27.1851 79.293 26.9415 77.9404 26.9622C76.5304 26.9475 75.1314 27.2064 73.8245 27.7239C72.5174 28.2413 71.3283 29.0071 70.3259 29.9768C69.3236 30.9466 68.5278 32.1012 67.9847 33.3736C67.4418 34.6461 67.1621 36.0112 67.1621 37.3901C67.1621 38.7688 67.4418 40.134 67.9847 41.4065C68.5278 42.6789 69.3236 43.8335 70.3259 44.8032C71.3283 45.773 72.5174 46.5387 73.8245 47.0562C75.1314 47.5736 76.5304 47.8326 77.9404 47.8178C79.3216 47.8737 80.6991 47.6416 81.9817 47.1373C83.2642 46.6329 84.4225 45.8676 85.3795 44.8923C87.0781 43.0786 87.9834 40.687 87.9015 38.2289C87.9085 37.6333 87.8562 37.0386 87.7454 36.4529L77.9367 36.4505ZM151.084 38.6622C150.67 37.4457 149.884 36.3831 148.831 35.6187C147.78 34.8545 146.512 34.4255 145.201 34.3905C144.319 34.3959 143.447 34.576 142.639 34.9204C141.83 35.2646 141.101 35.7656 140.495 36.3932C139.89 37.0208 139.42 37.762 139.117 38.5718C138.813 39.3816 138.68 40.2432 138.726 41.1047C138.706 41.9876 138.868 42.8651 139.203 43.6852C139.538 44.5054 140.039 45.251 140.674 45.8778C141.31 46.5044 142.069 46.9994 142.905 47.333C143.742 47.6665 144.638 47.8318 145.541 47.819C146.671 47.8251 147.786 47.5564 148.785 47.0369C149.784 46.5172 150.634 45.7633 151.262 44.8426L148.921 43.3164C148.57 43.886 148.075 44.3567 147.482 44.6822C146.889 45.0077 146.221 45.1768 145.541 45.1729C144.841 45.1991 144.149 45.0192 143.556 44.6565C142.962 44.2938 142.494 43.7651 142.21 43.1389L151.399 39.4295L151.084 38.6622ZM141.712 40.9023C141.679 40.4136 141.747 39.9235 141.911 39.4607C142.075 38.9979 142.33 38.5717 142.665 38.207C143 37.8422 143.404 37.5464 143.856 37.3367C144.31 37.127 144.8 37.0076 145.301 36.9857C145.82 36.9537 146.338 37.0713 146.79 37.3238C147.241 37.5763 147.607 37.9527 147.843 38.4065L141.712 40.9023ZM134.252 47.4142H137.27V27.6797H134.252V47.4142ZM129.31 35.893H129.207C128.748 35.4053 128.188 35.0191 127.565 34.76C126.941 34.5008 126.269 34.3749 125.591 34.3905C123.82 34.4632 122.146 35.2024 120.919 36.4536C119.692 37.7048 119.007 39.3712 119.007 41.1047C119.007 42.8383 119.692 44.5047 120.919 45.7559C122.146 47.0071 123.82 47.7463 125.591 47.819C126.271 47.8365 126.947 47.7091 127.571 47.4455C128.195 47.182 128.753 46.7887 129.207 46.2929H129.31V47.259C129.31 49.8282 127.906 51.2005 125.643 51.2005C124.889 51.183 124.157 50.9463 123.541 50.5205C122.925 50.0948 122.453 49.4993 122.184 48.8101L119.557 49.8755C120.052 51.0542 120.896 52.0615 121.98 52.7684C123.065 53.4752 124.34 53.8494 125.643 53.8431C129.18 53.8431 132.171 51.8078 132.171 46.8481V34.8H129.31V35.893ZM125.85 45.1764C124.808 45.0894 123.837 44.623 123.13 43.8696C122.422 43.1162 122.03 42.1306 122.03 41.1078C122.03 40.0848 122.422 39.0992 123.13 38.3458C123.837 37.5923 124.808 37.126 125.85 37.039C126.369 37.0645 126.877 37.1917 127.344 37.413C127.811 37.6343 128.228 37.945 128.57 38.3269C128.912 38.7088 129.172 39.154 129.335 39.6361C129.497 40.1182 129.559 40.6273 129.517 41.1332C129.557 41.6361 129.494 42.1419 129.33 42.6203C129.166 43.0987 128.905 43.5398 128.563 43.9172C128.221 44.2946 127.804 44.6008 127.338 44.8172C126.872 45.0334 126.366 45.1557 125.85 45.1764ZM165.211 27.6797H157.992V47.4142H161.005V39.9385H165.211C166.064 39.9849 166.916 39.8608 167.718 39.5736C168.52 39.2866 169.253 38.8426 169.874 38.2688C170.494 37.6951 170.987 37.0038 171.326 36.2369C171.663 35.47 171.837 34.644 171.837 33.8091C171.837 32.9743 171.663 32.1481 171.326 31.3814C170.987 30.6145 170.494 29.9231 169.874 29.3493C169.253 28.7757 168.52 28.3317 167.718 28.0445C166.916 27.7575 166.064 27.6333 165.211 27.6797ZM165.289 37.1917H161.005V30.4264H165.289C165.75 30.4146 166.21 30.4933 166.641 30.6579C167.071 30.8225 167.463 31.0697 167.794 31.3849C168.125 31.7003 168.389 32.0772 168.568 32.4935C168.748 32.9098 168.841 33.3572 168.841 33.8091C168.841 34.261 168.748 34.7083 168.568 35.1246C168.389 35.5411 168.125 35.918 167.794 36.2332C167.463 36.5486 167.071 36.7958 166.641 36.9604C166.21 37.125 165.75 37.2037 165.289 37.1917ZM183.905 34.3572C182.806 34.2945 181.712 34.547 180.757 35.0838C179.803 35.6204 179.029 36.4181 178.531 37.3787L181.206 38.4704C181.471 37.9936 181.872 37.6029 182.361 37.3459C182.85 37.0891 183.404 36.9769 183.958 37.0236C184.721 36.9521 185.483 37.1789 186.077 37.6544C186.67 38.13 187.047 38.8157 187.125 39.562V39.7656C186.157 39.2624 185.078 39.0004 183.983 39.0033C181.101 39.0033 178.171 40.5519 178.171 43.4466C178.171 46.0869 180.534 47.7883 183.183 47.7883C183.941 47.8321 184.697 47.6762 185.373 47.3367C186.049 46.9972 186.62 46.4868 187.025 45.8584H187.129V47.3821H190.035V39.8166C190.035 36.312 187.359 34.3572 183.906 34.3572H183.905ZM183.543 45.1729C182.556 45.1729 181.178 44.691 181.178 43.4976C181.178 41.9737 182.893 41.39 184.373 41.39C185.334 41.3649 186.285 41.5931 187.125 42.0507C187.014 42.9064 186.591 43.6941 185.932 44.268C185.274 44.8419 184.424 45.1634 183.543 45.1729ZM200.626 34.7894L197.173 43.3448H197.069L193.486 34.7894H190.241L195.616 46.7476L192.552 53.3991H195.693L203.976 34.7894H200.626ZM173.495 47.4142H176.507V27.6797H173.495V47.4142Z" fill="white"/>
<path d="M17.703 11.9697C17.1736 12.5881 16.9064 13.3811 16.9561 14.1861V49.0721C16.9064 49.877 17.1736 50.6701 17.703 51.2884L17.8241 51.4068L37.8022 31.8712V31.4094L17.8241 11.8679L17.703 11.9697Z" fill="#85C5EC"/>
<path d="M44.4661 38.3771L37.8066 31.8652V31.4035L44.4661 24.8916L44.6162 24.9757L52.5093 29.3564C54.7626 30.609 54.7626 32.6585 52.5093 33.9111L44.6162 38.2918L44.4661 38.3771Z" fill="url(#paint0_linear_1547_4069)"/>
<path d="M44.6184 38.2919L37.8053 31.6296L17.7061 51.2837C18.1653 51.6798 18.7519 51.9062 19.3641 51.9238C19.9762 51.9413 20.5753 51.7488 21.0575 51.3796L44.6184 38.2919Z" fill="url(#paint1_linear_1547_4069)"/>
<path d="M44.618 24.9654L21.0536 11.873C20.5713 11.5041 19.9723 11.3117 19.3602 11.3292C18.7481 11.3467 18.1616 11.573 17.7021 11.9689L37.8014 31.6229L44.618 24.9654Z" fill="url(#paint2_linear_1547_4069)"/>
</g>
</g>
<defs>
<linearGradient id="paint0_linear_1547_4069" x1="51.0454" y1="31.6308" x2="12.0144" y2="31.6308" gradientUnits="userSpaceOnUse">
<stop stop-color="#F9DD4D"/>
<stop offset="0.376" stop-color="#F1BF44"/>
<stop offset="0.762" stop-color="#EAA73D"/>
<stop offset="1" stop-color="#E89E3A"/>
</linearGradient>
<linearGradient id="paint1_linear_1547_4069" x1="40.917" y1="35.2502" x2="5.02764" y2="71.9513" gradientUnits="userSpaceOnUse">
<stop stop-color="#D44845"/>
<stop offset="1" stop-color="#B62E66"/>
</linearGradient>
<linearGradient id="paint2_linear_1547_4069" x1="4.04199" y1="-8.04972" x2="33.3439" y2="21.9159" gradientUnits="userSpaceOnUse">
<stop stop-color="#49946A"/>
<stop offset="0.39" stop-color="#69A669"/>
<stop offset="0.768" stop-color="#81B367"/>
<stop offset="1" stop-color="#8AB867"/>
</linearGradient>
<clipPath id="clip0_1547_4069">
<rect width="218.837" height="63.2577" fill="white"/>
</clipPath>
<clipPath id="clip1_1547_4069">
<rect width="218.766" height="63.2577" fill="white" transform="translate(0.0351562)"/>
</clipPath>
</defs>
</svg>
